<?xml version="1.0" standalone="no"?>
<!DOCTYPE svg PUBLIC "-//W3C//DTD SVG 20010904//EN"
 "http://www.w3.org/TR/2001/REC-SVG-20010904/DTD/svg10.dtd">
<svg version="1.0" xmlns="http://www.w3.org/2000/svg"
 width="270.000000pt" height="270.000000pt" viewBox="0 0 270.000000 270.000000"
 preserveAspectRatio="xMidYMid meet">
<metadata>
Created by potrace 1.11, written by Peter Selinger 2001-2013
</metadata>
<g transform="translate(0.000000,270.000000) scale(0.100000,-0.100000)"
fill="#000000" stroke="none">
<path d="M975 2125 c-27 -7 -63 -18 -80 -24 -55 -22 -150 -93 -188 -142 -39
-50 -54 -60 -54 -36 0 7 -8 52 -18 100 l-18 86 -158 0 -159 1 0 -724 0 -723
208 0 209 0 0 477 c1 535 1 542 71 618 45 49 86 71 144 75 58 5 98 -7 135 -40
36 -34 59 -75 69 -128 4 -22 8 -256 8 -520 l1 -480 205 0 205 0 2 470 c1 259
4 477 6 485 2 8 8 29 12 45 4 17 21 49 37 72 78 115 245 131 322 31 46 -62 49
-91 50 -613 l1 -490 205 0 205 0 1 532 c0 563 -3 609 -48 701 -30 64 -122 154
-190 186 -81 38 -189 59 -271 52 -148 -13 -267 -75 -355 -188 l-29 -37 -36 49
c-54 73 -125 121 -224 154 -65 22 -203 27 -268 11z"/>
</g>
</svg>
